<svg xmlns="http://www.w3.org/2000/svg" width="375" viewBox="0 0 375 375" height="375" version="1.0"><defs><clipPath id="a"><path d="M 75 90.210938 L 295 90.210938 L 295 99 L 75 99 Z M 75 90.210938"/></clipPath><clipPath id="b"><path d="M 251 195 L 337.5 195 L 337.5 284.460938 L 251 284.460938 Z M 251 195"/></clipPath></defs><path fill="#656D78" d="M 83.746094 98.480469 L 294.785156 98.480469 L 294.785156 254.386719 L 83.746094 254.386719 Z M 83.746094 98.480469"/><path fill="#E6E9ED" d="M 75.308594 98.480469 L 83.75 98.480469 L 83.75 254.386719 L 75.308594 254.386719 Z M 75.308594 98.480469"/><path fill="#CCD1D9" d="M 77.417969 178.550781 C 77.417969 177.382812 76.472656 176.445312 75.308594 176.445312 L 75.308594 180.65625 C 76.472656 180.65625 77.417969 179.710938 77.417969 178.550781 Z M 77.417969 178.550781"/><path fill="#CCD1D9" d="M 77.417969 191.191406 C 77.417969 190.023438 76.472656 189.085938 75.308594 189.085938 L 75.308594 193.296875 C 76.472656 193.296875 77.417969 192.351562 77.417969 191.191406 Z M 77.417969 191.191406"/><path fill="#CCD1D9" d="M 77.417969 203.832031 C 77.417969 202.664062 76.472656 201.726562 75.308594 201.726562 L 75.308594 205.9375 C 76.472656 205.9375 77.417969 204.992188 77.417969 203.832031 Z M 77.417969 203.832031"/><path fill="#CCD1D9" d="M 77.417969 216.472656 C 77.417969 215.304688 76.472656 214.367188 75.308594 214.367188 L 75.308594 218.582031 C 76.472656 218.582031 77.417969 217.632812 77.417969 216.472656 Z M 77.417969 216.472656"/><path fill="#CCD1D9" d="M 77.417969 229.113281 C 77.417969 227.945312 76.472656 227.007812 75.308594 227.007812 L 75.308594 231.222656 C 76.472656 231.222656 77.417969 230.273438 77.417969 229.113281 Z M 77.417969 229.113281"/><path fill="#CCD1D9" d="M 77.417969 241.753906 C 77.417969 240.589844 76.472656 239.648438 75.308594 239.648438 L 75.308594 243.863281 C 76.472656 243.863281 77.417969 242.914062 77.417969 241.753906 Z M 77.417969 241.753906"/><path fill="#CCD1D9" d="M 77.417969 165.910156 C 77.417969 164.742188 76.472656 163.800781 75.308594 163.800781 L 75.308594 168.015625 C 76.472656 168.015625 77.417969 167.066406 77.417969 165.910156 Z M 77.417969 165.910156"/><path fill="#CCD1D9" d="M 77.417969 153.269531 C 77.417969 152.101562 76.472656 151.160156 75.308594 151.160156 L 75.308594 155.375 C 76.472656 155.375 77.417969 154.425781 77.417969 153.269531 Z M 77.417969 153.269531"/><path fill="#CCD1D9" d="M 77.417969 140.628906 C 77.417969 139.460938 76.472656 138.519531 75.308594 138.519531 L 75.308594 142.734375 C 76.472656 142.734375 77.417969 141.785156 77.417969 140.628906 Z M 77.417969 140.628906"/><path fill="#CCD1D9" d="M 77.417969 127.988281 C 77.417969 126.820312 76.472656 125.878906 75.308594 125.878906 L 75.308594 130.09375 C 76.472656 130.09375 77.417969 129.144531 77.417969 127.988281 Z M 77.417969 127.988281"/><path fill="#CCD1D9" d="M 77.417969 115.34375 C 77.417969 114.179688 76.472656 113.238281 75.308594 113.238281 L 75.308594 117.453125 C 76.472656 117.453125 77.417969 116.503906 77.417969 115.34375 Z M 77.417969 115.34375"/><g clip-path="url(#a)"><path fill="#CCD1D9" d="M 294.785156 98.480469 L 75.304688 98.480469 L 75.304688 94.269531 C 75.304688 91.957031 77.203125 90.054688 79.523438 90.054688 L 290.5625 90.054688 C 292.886719 90.054688 294.785156 91.957031 294.785156 94.269531 Z M 294.785156 98.480469"/></g><path fill="#E6E9ED" d="M 81.660156 96.375 C 80.496094 96.375 79.53125 95.4375 79.53125 94.269531 C 79.53125 93.109375 80.453125 92.160156 81.613281 92.160156 L 81.660156 92.160156 C 82.820312 92.160156 83.769531 93.109375 83.769531 94.269531 C 83.769531 95.4375 82.820312 96.375 81.660156 96.375 Z M 81.660156 96.375"/><path fill="#E6E9ED" d="M 90.101562 96.375 C 88.9375 96.375 87.972656 95.4375 87.972656 94.269531 C 87.972656 93.109375 88.894531 92.160156 90.054688 92.160156 L 90.101562 92.160156 C 91.261719 92.160156 92.210938 93.109375 92.210938 94.269531 C 92.210938 95.4375 91.261719 96.375 90.101562 96.375 Z M 90.101562 96.375"/><path fill="#E6E9ED" d="M 98.542969 96.375 C 97.378906 96.375 96.414062 95.4375 96.414062 94.269531 C 96.414062 93.109375 97.335938 92.160156 98.496094 92.160156 L 98.542969 92.160156 C 99.703125 92.160156 100.65625 93.109375 100.65625 94.269531 C 100.65625 95.4375 99.703125 96.375 98.542969 96.375 Z M 98.542969 96.375"/><path fill="#FFCE54" d="M 113.292969 117.445312 L 96.410156 117.445312 C 95.242188 117.445312 94.296875 116.503906 94.296875 115.335938 C 94.296875 114.179688 95.242188 113.230469 96.410156 113.230469 L 113.292969 113.230469 C 114.457031 113.230469 115.402344 114.179688 115.402344 115.335938 C 115.402344 116.503906 114.457031 117.445312 113.292969 117.445312 Z M 113.292969 117.445312"/><path fill="#A0D468" d="M 185.042969 130.085938 L 130.175781 130.085938 C 129.007812 130.085938 128.0625 129.144531 128.0625 127.976562 C 128.0625 126.820312 129.007812 125.871094 130.175781 125.871094 L 185.042969 125.871094 C 186.210938 125.871094 187.15625 126.820312 187.15625 127.976562 C 187.15625 129.144531 186.210938 130.085938 185.042969 130.085938 Z M 185.042969 130.085938"/><path fill="#A0D468" d="M 121.734375 130.085938 L 100.628906 130.085938 C 99.464844 130.085938 98.519531 129.144531 98.519531 127.976562 C 98.519531 126.820312 99.464844 125.871094 100.628906 125.871094 L 121.734375 125.871094 C 122.898438 125.871094 123.84375 126.820312 123.84375 127.976562 C 123.84375 129.144531 122.898438 130.085938 121.734375 130.085938 Z M 121.734375 130.085938"/><path fill="#FC6E51" d="M 172.382812 142.726562 L 104.851562 142.726562 C 103.683594 142.726562 102.738281 141.785156 102.738281 140.617188 C 102.738281 139.460938 103.683594 138.511719 104.851562 138.511719 L 172.382812 138.511719 C 173.546875 138.511719 174.492188 139.460938 174.492188 140.617188 C 174.492188 141.785156 173.546875 142.726562 172.382812 142.726562 Z M 172.382812 142.726562"/><path fill="#FFCE54" d="M 117.511719 168.007812 L 104.851562 168.007812 C 103.683594 168.007812 102.738281 167.066406 102.738281 165.902344 C 102.738281 164.742188 103.683594 163.792969 104.851562 163.792969 L 117.511719 163.792969 C 118.675781 163.792969 119.621094 164.742188 119.621094 165.902344 C 119.621094 167.066406 118.675781 168.007812 117.511719 168.007812 Z M 117.511719 168.007812"/><path fill="#FFCE54" d="M 184.371094 168.007812 L 125.953125 168.007812 C 124.789062 168.007812 123.84375 167.066406 123.84375 165.902344 C 123.84375 164.742188 124.789062 163.792969 125.953125 163.792969 L 184.371094 163.792969 C 185.535156 163.792969 186.480469 164.742188 186.480469 165.902344 C 186.480469 167.066406 185.535156 168.007812 184.371094 168.007812 Z M 184.371094 168.007812"/><path fill="#FFCE54" d="M 117.511719 218.570312 L 104.851562 218.570312 C 103.683594 218.570312 102.738281 217.632812 102.738281 216.464844 C 102.738281 215.304688 103.683594 214.359375 104.851562 214.359375 L 117.511719 214.359375 C 118.675781 214.359375 119.621094 215.304688 119.621094 216.464844 C 119.621094 217.632812 118.675781 218.570312 117.511719 218.570312 Z M 117.511719 218.570312"/><path fill="#FFCE54" d="M 184.371094 218.570312 L 125.953125 218.570312 C 124.789062 218.570312 123.84375 217.632812 123.84375 216.464844 C 123.84375 215.304688 124.789062 214.359375 125.953125 214.359375 L 184.371094 214.359375 C 185.535156 214.359375 186.480469 215.304688 186.480469 216.464844 C 186.480469 217.632812 185.535156 218.570312 184.371094 218.570312 Z M 184.371094 218.570312"/><path fill="#4FC1E9" d="M 197.703125 155.367188 L 104.84375 155.367188 C 103.679688 155.367188 102.734375 154.425781 102.734375 153.261719 C 102.734375 152.101562 103.679688 151.152344 104.84375 151.152344 L 197.703125 151.152344 C 198.867188 151.152344 199.8125 152.101562 199.8125 153.261719 C 199.8125 154.425781 198.867188 155.367188 197.703125 155.367188 Z M 197.703125 155.367188"/><path fill="#A0D468" d="M 193.480469 180.648438 L 155.496094 180.648438 C 154.332031 180.648438 153.382812 179.710938 153.382812 178.542969 C 153.382812 177.382812 154.332031 176.433594 155.496094 176.433594 L 193.480469 176.433594 C 194.648438 176.433594 195.59375 177.382812 195.59375 178.542969 C 195.59375 179.710938 194.648438 180.648438 193.480469 180.648438 Z M 193.480469 180.648438"/><path fill="#AC92EC" d="M 168.160156 193.289062 L 100.628906 193.289062 C 99.464844 193.289062 98.519531 192.351562 98.519531 191.183594 C 98.519531 190.023438 99.464844 189.078125 100.628906 189.078125 L 168.160156 189.078125 C 169.328125 189.078125 170.273438 190.023438 170.273438 191.183594 C 170.273438 192.351562 169.328125 193.289062 168.160156 193.289062 Z M 168.160156 193.289062"/><path fill="#AC92EC" d="M 147.058594 231.210938 L 100.628906 231.210938 C 99.464844 231.210938 98.519531 230.273438 98.519531 229.105469 C 98.519531 227.945312 99.464844 227 100.628906 227 L 147.058594 227 C 148.222656 227 149.167969 227.945312 149.167969 229.105469 C 149.167969 230.273438 148.222656 231.210938 147.058594 231.210938 Z M 147.058594 231.210938"/><path fill="#FC6E51" d="M 147.058594 205.929688 L 104.851562 205.929688 C 103.683594 205.929688 102.738281 204.992188 102.738281 203.824219 C 102.738281 202.664062 103.683594 201.71875 104.851562 201.71875 L 147.058594 201.71875 C 148.222656 201.71875 149.167969 202.664062 149.167969 203.824219 C 149.167969 204.992188 148.222656 205.929688 147.058594 205.929688 Z M 147.058594 205.929688"/><path fill="#FFCE54" d="M 113.292969 243.855469 L 96.410156 243.855469 C 95.242188 243.855469 94.296875 242.914062 94.296875 241.746094 C 94.296875 240.589844 95.242188 239.640625 96.410156 239.640625 L 113.292969 239.640625 C 114.457031 239.640625 115.402344 240.589844 115.402344 241.746094 C 115.402344 242.914062 114.457031 243.855469 113.292969 243.855469 Z M 113.292969 243.855469"/><path fill="#AC92EC" d="M 201.929688 193.289062 L 176.601562 193.289062 C 175.4375 193.289062 174.492188 192.351562 174.492188 191.183594 C 174.492188 190.023438 175.4375 189.078125 176.601562 189.078125 L 201.929688 189.078125 C 203.09375 189.078125 204.039062 190.023438 204.039062 191.183594 C 204.039062 192.351562 203.09375 193.289062 201.929688 193.289062 Z M 201.929688 193.289062"/><path fill="#A0D468" d="M 147.054688 180.648438 L 100.625 180.648438 C 99.460938 180.648438 98.515625 179.710938 98.515625 178.542969 C 98.515625 177.382812 99.460938 176.433594 100.625 176.433594 L 147.054688 176.433594 C 148.21875 176.433594 149.164062 177.382812 149.164062 178.542969 C 149.164062 179.710938 148.21875 180.648438 147.054688 180.648438 Z M 147.054688 180.648438"/><path fill="#FC6E51" d="M 235.695312 142.734375 L 180.824219 142.734375 C 179.660156 142.734375 178.714844 141.785156 178.714844 140.628906 C 178.714844 139.460938 179.660156 138.519531 180.824219 138.519531 L 235.695312 138.519531 C 236.859375 138.519531 237.804688 139.460938 237.804688 140.628906 C 237.804688 141.785156 236.859375 142.734375 235.695312 142.734375 Z M 235.695312 142.734375"/><g clip-path="url(#b)"><path fill="#E6E9ED" d="M 275.757812 206.828125 C 272.394531 208.761719 269.402344 211.171875 266.878906 213.890625 L 260.375 210.128906 L 251.949219 224.71875 L 258.511719 228.492188 C 256.273438 235.667969 256.199219 243.453125 258.476562 250.851562 L 252.15625 254.496094 L 260.59375 269.089844 L 266.917969 265.445312 C 272.214844 271.152344 278.984375 274.933594 286.328125 276.589844 L 286.335938 284.1875 L 303.203125 284.203125 L 303.21875 276.632812 C 306.832031 275.820312 310.382812 274.449219 313.746094 272.515625 C 317.152344 270.554688 320.101562 268.171875 322.625 265.445312 L 329.15625 269.238281 L 337.621094 254.628906 L 331.035156 250.820312 C 333.230469 243.667969 333.335938 235.921875 331.035156 228.492188 L 337.351562 224.855469 L 328.90625 210.253906 L 322.597656 213.890625 C 317.316406 208.226562 310.523438 204.402344 303.21875 202.722656 L 303.226562 195.160156 L 286.328125 195.175781 L 286.328125 202.683594 C 282.707031 203.503906 279.164062 204.867188 275.757812 206.828125 Z M 294.785156 254.414062 C 286.601562 254.414062 280.011719 247.804688 280.011719 239.664062 C 280.011719 231.53125 286.601562 224.917969 294.785156 224.917969 C 302.929688 224.917969 309.558594 231.53125 309.558594 239.664062 C 309.558594 247.800781 302.925781 254.414062 294.785156 254.414062 Z M 294.785156 254.414062"/></g><path fill="#CCD1D9" d="M 294.785156 220.703125 C 284.257812 220.703125 275.792969 229.214844 275.792969 239.664062 C 275.792969 250.125 284.257812 258.625 294.785156 258.625 C 305.253906 258.625 313.777344 250.125 313.777344 239.664062 C 313.777344 229.210938 305.253906 220.703125 294.785156 220.703125 Z M 294.785156 250.199219 C 288.9375 250.199219 284.234375 245.484375 284.234375 239.664062 C 284.234375 233.855469 288.9375 229.132812 294.785156 229.132812 C 300.605469 229.132812 305.335938 233.855469 305.335938 239.664062 C 305.335938 245.484375 300.605469 250.199219 294.785156 250.199219 Z M 294.785156 250.199219"/><path fill="#CCD1D9" d="M 322.21875 241.78125 C 321.054688 241.78125 320.109375 240.832031 320.109375 239.675781 C 320.109375 225.730469 308.75 214.390625 294.785156 214.390625 C 293.621094 214.390625 292.675781 213.453125 292.675781 212.285156 C 292.675781 211.125 293.621094 210.179688 294.785156 210.179688 C 311.074219 210.179688 324.332031 223.414062 324.332031 239.675781 C 324.332031 240.832031 323.386719 241.78125 322.21875 241.78125 Z M 322.21875 241.78125"/><path fill="#CCD1D9" d="M 294.785156 269.167969 C 278.496094 269.167969 265.238281 255.933594 265.238281 239.675781 C 265.238281 238.515625 266.183594 237.566406 267.351562 237.566406 C 268.515625 237.566406 269.460938 238.515625 269.460938 239.675781 C 269.460938 253.617188 280.820312 264.957031 294.785156 264.957031 C 295.949219 264.957031 296.894531 265.902344 296.894531 267.0625 C 296.894531 268.230469 295.949219 269.167969 294.785156 269.167969 Z M 294.785156 269.167969"/><path fill="#E6E9ED" d="M 258.742188 191.804688 C 258.574219 189.527344 257.980469 187.296875 256.972656 185.191406 L 260.808594 181.398438 L 251.863281 172.46875 L 248.023438 176.253906 C 245.914062 175.289062 243.679688 174.699219 241.394531 174.527344 L 240.003906 169.308594 L 227.765625 172.59375 L 229.15625 177.738281 C 228.230469 178.359375 227.304688 179.078125 226.5 179.929688 C 225.65625 180.765625 224.933594 181.65625 224.300781 182.621094 L 219.113281 181.238281 L 215.859375 193.445312 L 221.046875 194.835938 C 221.222656 197.117188 221.8125 199.34375 222.820312 201.453125 L 219.027344 205.242188 L 227.972656 214.171875 L 231.773438 210.390625 C 233.882812 211.390625 236.117188 211.945312 238.398438 212.160156 L 239.789062 217.335938 L 252.027344 214.054688 L 250.636719 208.910156 C 251.601562 208.285156 252.492188 207.570312 253.335938 206.71875 C 254.179688 205.878906 254.898438 204.992188 255.53125 204.019531 L 260.683594 205.410156 L 263.972656 193.234375 Z M 239.917969 201.75 C 235.238281 201.75 231.476562 197.996094 231.476562 193.324219 C 231.476562 188.6875 235.238281 184.894531 239.917969 184.894531 C 244.5625 184.894531 248.359375 188.6875 248.359375 193.324219 C 248.359375 197.996094 244.558594 201.75 239.917969 201.75 Z M 239.917969 201.75"/><path fill="#CCD1D9" d="M 239.917969 182.789062 C 234.066406 182.789062 229.367188 187.53125 229.367188 193.324219 C 229.367188 199.167969 234.066406 203.859375 239.917969 203.859375 C 245.71875 203.859375 250.472656 199.167969 250.472656 193.324219 C 250.472656 187.53125 245.71875 182.789062 239.917969 182.789062 Z M 239.917969 199.644531 C 236.40625 199.644531 233.589844 196.828125 233.589844 193.324219 C 233.589844 189.851562 236.40625 187.003906 239.917969 187.003906 C 243.402344 187.003906 246.25 189.851562 246.25 193.324219 C 246.25 196.828125 243.402344 199.644531 239.917969 199.644531 Z M 239.917969 199.644531"/></svg>